<svg width="102" height="48" viewBox="0 0 102 48" fill="none" xmlns="http://www.w3.org/2000/svg">
<path d="M57.943 16.296C57.388 16.296 56.872 16.197 56.396 15.998C55.92 15.799 55.506 15.509 55.154 15.128C54.802 14.747 54.525 14.277 54.322 13.718C54.119 13.159 54.017 12.519 54.017 11.799C54.017 11.079 54.127 10.439 54.346 9.88C54.565 9.321 54.857 8.851 55.222 8.47C55.586 8.089 56.009 7.801 56.489 7.607C56.969 7.413 57.471 7.315 57.992 7.315C58.315 7.315 58.609 7.336 58.874 7.377C59.139 7.418 59.371 7.47 59.57 7.532C59.769 7.594 59.938 7.656 60.079 7.718C60.22 7.78 60.327 7.836 60.402 7.886L60.129 8.619C59.922 8.495 59.659 8.373 59.34 8.253C59.021 8.133 58.626 8.073 58.154 8.073C57.615 8.073 57.146 8.164 56.744 8.346C56.342 8.528 56.005 8.785 55.732 9.116C55.459 9.447 55.254 9.841 55.117 10.296C54.98 10.752 54.912 11.257 54.912 11.812C54.912 12.383 54.98 12.899 55.117 13.359C55.254 13.819 55.454 14.21 55.719 14.533C55.984 14.856 56.309 15.104 56.694 15.278C57.079 15.452 57.52 15.539 58.017 15.539C58.564 15.539 59.021 15.487 59.39 15.384C59.758 15.281 60.038 15.175 60.229 15.067L60.465 15.788C60.407 15.83 60.308 15.877 60.167 15.931C60.026 15.985 59.848 16.041 59.633 16.099C59.418 16.157 59.169 16.205 58.888 16.242C58.606 16.279 58.292 16.298 57.944 16.298L57.943 16.296Z" fill="white"/>
<path d="M68.067 16.11C67.903 15.687 67.752 15.281 67.614 14.89C67.476 14.5 67.344 14.119 67.218 13.749H63.012C62.868 14.121 62.728 14.502 62.59 14.893C62.453 15.283 62.307 15.689 62.154 16.11H61.272C61.599 15.214 61.908 14.379 62.198 13.605C62.489 12.831 62.774 12.099 63.054 11.408C63.333 10.717 63.611 10.054 63.887 9.41697C64.163 8.77997 64.452 8.14198 64.756 7.50098H65.501C65.805 8.13798 66.093 8.77597 66.365 9.41397C66.638 10.052 66.914 10.716 67.195 11.406C67.476 12.096 67.76 12.829 68.048 13.604C68.336 14.379 68.653 15.214 68.999 16.109L68.067 16.11ZM65.105 8.46997C64.793 9.18497 64.49 9.91098 64.195 10.647C63.9 11.383 63.594 12.177 63.278 13.029H66.953C66.635 12.176 66.325 11.381 66.025 10.643C65.724 9.90597 65.417 9.18098 65.106 8.46898L65.105 8.46997Z" fill="white"/>
<path d="M74.167 14.867C74.084 14.66 73.965 14.387 73.811 14.047C73.657 13.708 73.484 13.337 73.293 12.935C73.102 12.533 72.906 12.119 72.707 11.693C72.507 11.267 72.316 10.867 72.133 10.494C71.95 10.121 71.788 9.79397 71.646 9.51297C71.504 9.23197 71.401 9.03297 71.334 8.91697C71.226 9.95197 71.141 11.077 71.079 12.29C71.017 13.503 70.961 14.777 70.911 16.11H70.079C70.154 14.545 70.238 13.046 70.334 11.613C70.429 10.18 70.547 8.80998 70.688 7.50098H71.433C71.682 7.91498 71.947 8.39297 72.23 8.93597C72.512 9.47897 72.792 10.042 73.07 10.626C73.348 11.21 73.618 11.786 73.879 12.353C74.14 12.92 74.371 13.432 74.57 13.887C74.769 13.432 74.999 12.92 75.261 12.353C75.522 11.786 75.792 11.21 76.07 10.626C76.348 10.042 76.628 9.47897 76.91 8.93597C77.192 8.39397 77.458 7.91498 77.706 7.50098H78.414C78.555 8.80998 78.673 10.18 78.768 11.613C78.863 13.046 78.948 14.545 79.023 16.11H78.166C78.116 14.777 78.06 13.503 77.998 12.29C77.936 11.077 77.851 9.95297 77.743 8.91697C77.677 9.03297 77.573 9.23197 77.432 9.51297C77.291 9.79497 77.13 10.122 76.947 10.494C76.765 10.867 76.574 11.266 76.376 11.693C76.177 12.12 75.983 12.534 75.792 12.935C75.601 13.337 75.43 13.707 75.276 14.047C75.123 14.387 75.005 14.66 74.922 14.867H74.164H74.167Z" fill="white"/>
<path d="M83.273 7.42603C84.49 7.42603 85.397 7.65802 85.994 8.12202C86.59 8.58602 86.888 9.24402 86.888 10.097C86.888 10.586 86.801 11.002 86.627 11.345C86.453 11.689 86.205 11.966 85.882 12.177C85.559 12.388 85.163 12.542 84.696 12.637C84.228 12.732 83.7 12.78 83.112 12.78H81.944V16.109H81.099V7.66203C81.397 7.57903 81.747 7.51903 82.149 7.48203C82.551 7.44503 82.925 7.42603 83.273 7.42603ZM83.31 8.15902C82.995 8.15902 82.728 8.16903 82.509 8.19003C82.29 8.21103 82.101 8.22903 81.944 8.24603V12.047H83.012C83.467 12.047 83.879 12.02 84.248 11.966C84.616 11.912 84.931 11.813 85.192 11.668C85.453 11.523 85.654 11.322 85.794 11.065C85.935 10.808 86.005 10.481 86.005 10.084C86.005 9.70303 85.928 9.38803 85.775 9.14003C85.622 8.89103 85.419 8.69503 85.166 8.55003C84.913 8.40503 84.626 8.30403 84.303 8.24603C83.98 8.18803 83.649 8.15902 83.309 8.15902H83.31Z" fill="white"/>
<path d="M91.621 16.296C91.05 16.296 90.563 16.209 90.161 16.035C89.759 15.861 89.434 15.621 89.186 15.314C88.938 15.008 88.757 14.649 88.646 14.239C88.534 13.829 88.478 13.388 88.478 12.916V7.5H89.323V12.804C89.323 13.276 89.379 13.684 89.491 14.028C89.603 14.372 89.758 14.655 89.957 14.879C90.156 15.103 90.396 15.268 90.678 15.376C90.959 15.484 91.274 15.538 91.622 15.538C91.97 15.538 92.284 15.484 92.566 15.376C92.848 15.268 93.088 15.103 93.287 14.879C93.486 14.655 93.641 14.372 93.753 14.028C93.865 13.684 93.921 13.276 93.921 12.804V7.5H94.766V12.916C94.766 13.388 94.71 13.829 94.598 14.239C94.486 14.649 94.306 15.007 94.058 15.314C93.81 15.621 93.485 15.861 93.083 16.035C92.681 16.209 92.195 16.296 91.623 16.296H91.621Z" fill="white"/>
<path d="M98.875 15.563C99.546 15.563 100.068 15.441 100.44 15.196C100.813 14.951 100.999 14.555 100.999 14.007C100.999 13.692 100.939 13.428 100.819 13.216C100.699 13.004 100.54 12.826 100.341 12.681C100.142 12.536 99.914 12.412 99.658 12.309C99.401 12.206 99.132 12.097 98.85 11.982C98.494 11.842 98.175 11.698 97.894 11.55C97.612 11.402 97.372 11.235 97.174 11.048C96.975 10.862 96.824 10.649 96.721 10.408C96.617 10.168 96.566 9.886 96.566 9.563C96.566 8.826 96.81 8.267 97.299 7.886C97.788 7.505 98.467 7.315 99.336 7.315C99.568 7.315 99.796 7.332 100.019 7.365C100.243 7.398 100.452 7.442 100.647 7.495C100.841 7.549 101.02 7.609 101.181 7.675C101.343 7.741 101.477 7.812 101.585 7.886L101.287 8.594C101.047 8.428 100.755 8.296 100.411 8.197C100.067 8.098 99.697 8.048 99.299 8.048C99.026 8.048 98.775 8.075 98.547 8.129C98.319 8.183 98.122 8.27 97.957 8.39C97.791 8.51 97.661 8.661 97.566 8.843C97.471 9.025 97.423 9.245 97.423 9.501C97.423 9.766 97.473 9.99 97.572 10.172C97.671 10.354 97.81 10.512 97.988 10.644C98.166 10.777 98.375 10.897 98.615 11.004C98.855 11.112 99.116 11.224 99.398 11.339C99.737 11.48 100.058 11.621 100.361 11.761C100.663 11.902 100.926 12.067 101.15 12.258C101.374 12.449 101.552 12.68 101.684 12.954C101.816 13.227 101.883 13.563 101.883 13.96C101.883 14.739 101.612 15.322 101.069 15.712C100.527 16.101 99.791 16.296 98.864 16.296C98.533 16.296 98.231 16.275 97.957 16.234C97.684 16.193 97.439 16.141 97.224 16.079C97.008 16.017 96.826 15.953 96.677 15.886C96.528 15.82 96.412 15.762 96.329 15.712L96.602 14.979C96.685 15.029 96.796 15.087 96.937 15.153C97.078 15.219 97.243 15.283 97.434 15.346C97.624 15.408 97.84 15.46 98.08 15.501C98.32 15.543 98.585 15.563 98.875 15.563Z" fill="white"/>
<path d="M54.756 19.56C55.004 20.297 55.245 20.995 55.478 21.653C55.711 22.311 55.94 22.948 56.164 23.565C56.388 24.182 56.616 24.787 56.846 25.379C57.076 25.972 57.326 26.57 57.595 27.175C57.852 26.58 58.097 25.987 58.332 25.394C58.566 24.801 58.798 24.197 59.027 23.58C59.257 22.964 59.486 22.324 59.715 21.663C59.944 21.001 60.183 20.3 60.433 19.56H61.328C60.948 20.649 60.606 21.602 60.3 22.421C59.994 23.24 59.712 23.981 59.454 24.644C59.195 25.307 58.949 25.919 58.713 26.478C58.477 27.037 58.231 27.601 57.974 28.169H57.181C56.93 27.595 56.684 27.029 56.443 26.47C56.202 25.911 55.95 25.301 55.687 24.64C55.424 23.979 55.14 23.238 54.838 22.418C54.535 21.599 54.194 20.646 53.814 19.561H54.758L54.756 19.56Z" fill="white"/>
<path d="M62.62 19.56H63.465V28.169H62.62V19.56Z" fill="white"/>
<path d="M71.502 22.144C71.502 22.79 71.332 23.299 70.993 23.672C70.653 24.045 70.206 24.314 69.651 24.479C69.784 24.645 69.956 24.868 70.167 25.15C70.378 25.432 70.596 25.74 70.819 26.075C71.043 26.41 71.262 26.76 71.478 27.125C71.693 27.49 71.875 27.837 72.025 28.169H71.118C70.944 27.838 70.756 27.507 70.553 27.175C70.35 26.844 70.143 26.523 69.932 26.212C69.721 25.901 69.516 25.614 69.317 25.349C69.118 25.084 68.944 24.852 68.795 24.653C68.53 24.678 68.265 24.69 68 24.69H66.609V28.168H65.764V19.721C66.062 19.638 66.412 19.578 66.814 19.541C67.216 19.504 67.586 19.485 67.926 19.485C69.11 19.485 70.003 19.709 70.603 20.156C71.203 20.603 71.504 21.266 71.504 22.144H71.502ZM68.023 20.218C67.708 20.218 67.433 20.228 67.197 20.249C66.961 20.27 66.764 20.288 66.607 20.305V23.97H67.775C68.164 23.97 68.533 23.951 68.881 23.914C69.229 23.877 69.531 23.794 69.788 23.665C70.045 23.537 70.248 23.353 70.397 23.112C70.546 22.872 70.621 22.545 70.621 22.131C70.621 21.75 70.546 21.435 70.397 21.187C70.248 20.938 70.053 20.742 69.813 20.597C69.573 20.452 69.297 20.353 68.987 20.299C68.676 20.245 68.354 20.218 68.023 20.218Z" fill="white"/>
<path d="M78.968 19.56V20.293H76.21V28.169H75.365V20.293H72.607V19.56H78.968Z" fill="white"/>
<path d="M83.477 28.355C82.906 28.355 82.419 28.268 82.017 28.094C81.615 27.92 81.29 27.68 81.042 27.373C80.794 27.067 80.613 26.708 80.502 26.298C80.39 25.888 80.334 25.447 80.334 24.975V19.559H81.179V24.863C81.179 25.335 81.235 25.743 81.347 26.087C81.459 26.431 81.614 26.714 81.813 26.938C82.012 27.162 82.252 27.327 82.534 27.435C82.815 27.543 83.13 27.597 83.478 27.597C83.826 27.597 84.14 27.543 84.422 27.435C84.704 27.327 84.944 27.162 85.143 26.938C85.342 26.714 85.497 26.431 85.609 26.087C85.721 25.743 85.777 25.335 85.777 24.863V19.559H86.622V24.975C86.622 25.447 86.566 25.888 86.454 26.298C86.342 26.708 86.162 27.066 85.914 27.373C85.666 27.68 85.341 27.92 84.939 28.094C84.537 28.268 84.051 28.355 83.479 28.355H83.477Z" fill="white"/>
<path d="M94.682 28.169C94.518 27.746 94.367 27.34 94.229 26.949C94.091 26.559 93.959 26.178 93.833 25.808H89.627C89.483 26.18 89.343 26.561 89.205 26.952C89.068 27.342 88.922 27.748 88.769 28.169H87.887C88.214 27.273 88.523 26.438 88.813 25.664C89.104 24.89 89.389 24.158 89.669 23.467C89.948 22.776 90.226 22.113 90.502 21.476C90.778 20.839 91.067 20.201 91.371 19.56H92.116C92.42 20.197 92.708 20.835 92.98 21.473C93.253 22.111 93.529 22.775 93.81 23.465C94.091 24.155 94.375 24.888 94.663 25.663C94.951 26.438 95.268 27.273 95.614 28.168L94.682 28.169ZM91.719 20.529C91.407 21.244 91.104 21.97 90.809 22.706C90.514 23.442 90.208 24.236 89.892 25.088H93.567C93.249 24.235 92.939 23.44 92.639 22.702C92.338 21.965 92.031 21.24 91.72 20.528L91.719 20.529Z" fill="white"/>
<path d="M101.8 27.436V28.169H96.906V19.56H97.751V27.436H101.801H101.8Z" fill="white"/>
<path d="M54.077 32.436H59.457V33.615H55.441V35.655H58.965V36.768H55.441V40.227H54.077V32.436Z" fill="white"/>
<path d="M60.678 32.436H62.042V40.227H60.678V32.436Z" fill="white"/>
<path d="M70.891 36.332C70.891 38.558 69.494 40.413 67.159 40.413C64.824 40.413 63.427 38.558 63.427 36.332C63.427 34.106 64.824 32.251 67.159 32.251C69.494 32.251 70.891 34.106 70.891 36.332ZM64.791 36.332C64.791 37.827 65.489 39.3 67.159 39.3C68.829 39.3 69.527 37.827 69.527 36.332C69.527 34.837 68.829 33.364 67.159 33.364C65.489 33.364 64.791 34.837 64.791 36.332Z" fill="white"/>
<path d="M77.524 34.914C77.295 34.019 76.717 33.364 75.582 33.364C73.913 33.364 73.214 34.837 73.214 36.332C73.214 37.827 73.912 39.3 75.582 39.3C76.793 39.3 77.459 38.394 77.568 37.26H78.899C78.79 39.126 77.47 40.414 75.582 40.414C73.247 40.414 71.85 38.559 71.85 36.333C71.85 34.107 73.247 32.252 75.582 32.252C77.339 32.263 78.725 33.234 78.888 34.914H77.524Z" fill="white"/>
<path d="M80.273 32.436H83.994C85.696 32.436 86.569 33.222 86.569 34.542C86.569 36.037 85.532 36.419 85.281 36.506V36.528C85.75 36.593 86.438 36.943 86.438 38.176C86.438 39.082 86.569 39.911 86.864 40.228H85.402C85.195 39.89 85.195 39.464 85.195 39.082C85.195 37.653 84.9 37.02 83.645 37.02H81.637V40.228H80.273V32.436ZM81.637 35.983H83.874C84.736 35.983 85.205 35.557 85.205 34.739C85.205 33.746 84.561 33.55 83.852 33.55H81.637V35.983Z" fill="white"/>
<path d="M87.997 32.436H89.361V36.975C89.361 38.023 89.427 39.234 91.194 39.234C92.961 39.234 93.027 38.023 93.027 36.975V32.436H94.391V37.423C94.391 39.42 93.114 40.413 91.194 40.413C89.274 40.413 87.997 39.42 87.997 37.423V32.436Z" fill="white"/>
<path d="M95.864 32.436H101.789V33.473L97.25 39.049H101.898V40.228H95.515V39.115L100.054 33.615H95.864V32.436Z" fill="white"/>
<path fill-rule="evenodd" clip-rule="evenodd" d="M23.864 17.306C26.148 17.306 28.432 16.447 30.171 14.708L36.059 8.82L32.497 5.258L26.588 11.167C25.834 11.921 24.849 12.298 23.864 12.298C22.879 12.298 21.874 11.921 21.14 11.167L15.231 5.258L11.669 8.82L17.557 14.708C19.296 16.447 21.58 17.306 23.864 17.306Z" fill="white"/>
<path fill-rule="evenodd" clip-rule="evenodd" d="M23.864 8.464C26.211 8.464 28.096 6.578 28.096 4.232C28.096 1.885 26.21 0 23.864 0C21.517 0 19.632 1.886 19.632 4.232C19.632 6.558 21.518 8.464 23.864 8.464Z" fill="white"/>
<path fill-rule="evenodd" clip-rule="evenodd" d="M30.422 23.864C30.422 26.148 31.281 28.432 33.02 30.171L38.908 36.059L42.47 32.497L36.561 26.588C35.807 25.834 35.43 24.849 35.43 23.864C35.43 22.879 35.807 21.874 36.561 21.14L42.47 15.231L38.908 11.669L33.02 17.557C31.281 19.296 30.422 21.58 30.422 23.864Z" fill="white"/>
<path fill-rule="evenodd" clip-rule="evenodd" d="M39.264 23.864C39.264 26.211 41.15 28.096 43.496 28.096C45.843 28.096 47.728 26.21 47.728 23.864C47.728 21.517 45.842 19.632 43.496 19.632C41.17 19.632 39.264 21.518 39.264 23.864Z" fill="white"/>
<path fill-rule="evenodd" clip-rule="evenodd" d="M23.864 30.422C26.148 30.422 28.432 31.281 30.171 33.02L36.059 38.908L32.497 42.47L26.588 36.561C25.834 35.807 24.849 35.43 23.864 35.43C22.879 35.43 21.874 35.807 21.14 36.561L15.231 42.47L11.669 38.908L17.557 33.02C19.296 31.281 21.58 30.422 23.864 30.422Z" fill="white"/>
<path fill-rule="evenodd" clip-rule="evenodd" d="M23.864 39.264C26.211 39.264 28.096 41.15 28.096 43.496C28.096 45.843 26.21 47.728 23.864 47.728C21.517 47.728 19.632 45.842 19.632 43.496C19.632 41.17 21.518 39.264 23.864 39.264Z" fill="white"/>
<path fill-rule="evenodd" clip-rule="evenodd" d="M17.306 23.864C17.306 26.148 16.447 28.432 14.708 30.171L8.82 36.059L5.258 32.497L11.167 26.588C11.921 25.834 12.298 24.849 12.298 23.864C12.298 22.879 11.921 21.874 11.167 21.14L5.258 15.231L8.82 11.669L14.708 17.557C16.447 19.296 17.306 21.58 17.306 23.864Z" fill="white"/>
<path fill-rule="evenodd" clip-rule="evenodd" d="M8.464 23.864C8.464 26.211 6.578 28.096 4.232 28.096C1.885 28.096 0 26.21 0 23.864C0 21.517 1.886 19.632 4.232 19.632C6.558 19.632 8.464 21.518 8.464 23.864Z" fill="white"/>
</svg>
